<svg xmlns="http://www.w3.org/2000/svg" width="512" height="512" viewBox="-230 320 1670 1670" fill="none">
  <title>Monogram logo</title>
  <desc>Vector recreation of the supplied monogram with a transparent background.</desc>
  <rect x="-230" y="320" width="1670" height="1670" rx="180" fill="#f7f6f2"/>
  <g fill="#222220">
    <path d="M98 501 C351 500 490 687 603 972 C675 1154 719 1352 796 1492 C861 1611 947 1677 1059 1679 L1059 1690 C922 1694 803 1620 724 1502 C638 1373 592 1198 539 1014 C487 836 434 689 337 602 C267 538 187 516 97 512 Z"/>
    <path d="M852 710 L961 711 C919 726 906 751 890 794 L690 1257 L679 1251 L877 791 C894 750 896 731 852 710 Z"/>
    <path d="M159 925 L341 927 C302 946 291 972 290 1022 L284 1547 C284 1600 293 1627 329 1637 L328 1641 L144 1637 C183 1626 195 1601 197 1548 L205 1020 C206 969 195 941 159 925 Z"/>
    <path d="M281 1331 L556 1045 L566 1055 L391 1240 C469 1274 514 1366 577 1484 C639 1600 673 1700 759 1767 C854 1842 933 1869 1119 1828 L1121 1838 C981 1885 841 1875 755 1835 C652 1787 608 1723 568 1604 C522 1468 483 1315 380 1251 L283 1353 Z"/>
  </g>
</svg>
